<svg width="66" height="94" viewBox="0 0 66 94" fill="none" xmlns="http://www.w3.org/2000/svg">
<path d="M62.3854 90.2755C55.2476 92.8601 47.5855 93.6578 40.0684 92.599C32.5512 91.5402 25.4076 88.6571 19.2614 84.2015C13.1151 79.7458 8.15326 73.8532 4.80905 67.0381C1.46484 60.2231 -0.15999 52.6929 0.0764589 45.1052C0.312907 37.5175 2.40345 30.1031 6.1655 23.5095C9.92756 16.9159 15.2467 11.3436 21.6584 7.27929C28.0702 3.21498 35.3794 0.782254 42.9479 0.193563C50.5164 -0.395128 58.114 0.878122 65.077 3.90212L61.8522 11.3277C56.1014 8.83021 49.8266 7.77863 43.5757 8.26483C37.3249 8.75103 31.2882 10.7602 25.9927 14.1169C20.6973 17.4737 16.3042 22.0758 13.1971 27.5215C10.09 32.9671 8.36346 39.0907 8.16818 45.3573C7.9729 51.624 9.31484 57.8432 12.0768 63.4717C14.8388 69.1003 18.9368 73.9671 24.013 77.647C29.0892 81.3269 34.9891 83.7081 41.1975 84.5825C47.4059 85.457 53.734 84.7981 59.6292 82.6635L62.3854 90.2755Z" fill="#B2FF59"/>
</svg>
